# Blender v2.60 (sub 0) OBJ File: 'board.blend'
# www.blender.org
mtllib board.mtl
o Cube.009
v 1.200000 -7.900000 0.000000
v 1.200000 -7.900000 1.000000
v 1.200000 -6.900000 1.000000
v 1.200000 -6.900000 -0.000000
v 1.300000 -7.900000 0.000000
v 1.300000 -7.899999 1.000000
v 1.300000 -6.900000 1.000000
v 1.300000 -6.900000 0.000000
vn -1.000000 -0.000000 0.000000
vn 1.000000 0.000000 -0.000000
vn 0.000002 -1.000000 0.000000
vn -0.000001 0.000000 1.000000
vn 0.000000 1.000000 -0.000000
vn 0.000002 -0.000000 -1.000000
usemtl 
s off
f 1//1 2//1 3//1
f 1//1 3//1 4//1
f 5//2 8//2 7//2
f 5//2 7//2 6//2
f 1//3 5//3 6//3
f 1//3 6//3 2//3
f 2//4 6//4 7//4
f 2//4 7//4 3//4
f 3//5 7//5 8//5
f 3//5 8//5 4//5
f 5//6 1//6 4//6
f 5//6 4//6 8//6
o Cube.008_Untitled
v 0.700000 -7.900000 0.000000
v 0.700000 -7.900000 1.000000
v 0.700000 -6.900000 1.000000
v 0.700000 -6.900000 -0.000000
v 0.800000 -7.900000 0.000000
v 0.800000 -7.899999 1.000000
v 0.800000 -6.900000 1.000000
v 0.800000 -6.900000 0.000000
usemtl 
s off
f 9//1 10//1 11//1
f 9//1 11//1 12//1
f 13//2 16//2 15//2
f 13//2 15//2 14//2
f 9//3 13//3 14//3
f 9//3 14//3 10//3
f 10//4 14//4 15//4
f 10//4 15//4 11//4
f 11//5 15//5 16//5
f 11//5 16//5 12//5
f 13//6 9//6 12//6
f 13//6 12//6 16//6
o Cube.007
v 0.200000 -7.900000 0.000000
v 0.200000 -7.900000 1.000000
v 0.200000 -6.900000 1.000000
v 0.200000 -6.900000 -0.000000
v 0.300000 -7.900000 0.000000
v 0.300000 -7.899999 1.000000
v 0.300000 -6.900000 1.000000
v 0.300000 -6.900000 0.000000
usemtl 
s off
f 17//1 18//1 19//1
f 17//1 19//1 20//1
f 21//2 24//2 23//2
f 21//2 23//2 22//2
f 17//3 21//3 22//3
f 17//3 22//3 18//3
f 18//4 22//4 23//4
f 18//4 23//4 19//4
f 19//5 23//5 24//5
f 19//5 24//5 20//5
f 21//6 17//6 20//6
f 21//6 20//6 24//6
o Cube.006
v -1.300000 -7.900000 0.000000
v -1.300000 -7.900000 1.000000
v -1.300000 -6.900000 1.000000
v -1.300000 -6.900000 -0.000000
v -1.200000 -7.900000 0.000000
v -1.200000 -7.899999 1.000000
v -1.200000 -6.900000 1.000000
v -1.200000 -6.900000 0.000000
usemtl 
s off
f 25//1 26//1 27//1
f 25//1 27//1 28//1
f 29//2 32//2 31//2
f 29//2 31//2 30//2
f 25//3 29//3 30//3
f 25//3 30//3 26//3
f 26//4 30//4 31//4
f 26//4 31//4 27//4
f 27//5 31//5 32//5
f 27//5 32//5 28//5
f 29//6 25//6 28//6
f 29//6 28//6 32//6
o Cube.005
v -0.800000 -7.900000 0.000000
v -0.800000 -7.900000 1.000000
v -0.800000 -6.900000 1.000000
v -0.800000 -6.900000 -0.000000
v -0.700000 -7.900000 0.000000
v -0.700000 -7.899999 1.000000
v -0.700000 -6.900000 1.000000
v -0.700000 -6.900000 0.000000
usemtl 
s off
f 33//1 34//1 35//1
f 33//1 35//1 36//1
f 37//2 40//2 39//2
f 37//2 39//2 38//2
f 33//3 37//3 38//3
f 33//3 38//3 34//3
f 34//4 38//4 39//4
f 34//4 39//4 35//4
f 35//5 39//5 40//5
f 35//5 40//5 36//5
f 37//6 33//6 36//6
f 37//6 36//6 40//6
o Cube.004
v -0.300000 -7.900000 0.000000
v -0.300000 -7.900000 1.000000
v -0.300000 -6.900000 1.000000
v -0.300000 -6.900000 -0.000000
v -0.200000 -7.900000 0.000000
v -0.200000 -7.899999 1.000000
v -0.200000 -6.900000 1.000000
v -0.200000 -6.900000 0.000000
usemtl 
s off
f 41//1 42//1 43//1
f 41//1 43//1 44//1
f 45//2 48//2 47//2
f 45//2 47//2 46//2
f 41//3 45//3 46//3
f 41//3 46//3 42//3
f 42//4 46//4 47//4
f 42//4 47//4 43//4
f 43//5 47//5 48//5
f 43//5 48//5 44//5
f 45//6 41//6 44//6
f 45//6 44//6 48//6
o Cube.003
v 2.000000 -8.000000 0.000000
v 2.000000 -8.000000 1.000000
v -2.000000 -8.000000 1.000000
v -1.999999 -8.000000 -0.000000
v 2.000001 -7.900000 0.000000
v 1.999999 -7.900000 1.000000
v -2.000001 -7.900000 1.000000
v -2.000000 -7.900000 0.000000
vn 0.000000 -1.000000 0.000000
vn 1.000000 0.000001 0.000001
vn -0.000000 -0.000001 1.000000
vn -1.000000 -0.000005 -0.000001
vn 0.000000 0.000002 -1.000000
usemtl 
s off
f 49//7 50//7 51//7
f 49//7 51//7 52//7
f 53//5 56//5 55//5
f 53//5 55//5 54//5
f 49//8 53//8 54//8
f 49//8 54//8 50//8
f 50//9 54//9 55//9
f 50//9 55//9 51//9
f 51//10 55//10 56//10
f 51//10 56//10 52//10
f 53//11 49//11 52//11
f 53//11 52//11 56//11
o Cube.002
v 1.950000 -1.000000 0.000000
v 1.950000 -1.000000 1.000000
v 2.000000 -1.000000 1.000000
v 2.000000 -1.000000 -0.000000
v 1.950000 0.000000 0.000001
v 1.950000 0.000000 1.000001
v 2.000000 0.000000 1.000000
v 2.000000 0.000000 0.000000
v 2.000000 -1.500000 -0.000000
v 2.000000 -1.500000 1.000000
v 1.750000 -1.500000 1.000000
v 1.750000 -1.500000 0.000000
v 1.950000 -2.000000 0.000000
v 1.950000 -2.000000 1.000000
v 2.000000 -2.000000 1.000000
v 2.000000 -2.000000 -0.000000
v 2.000000 -2.500000 -0.000000
v 2.000000 -2.500000 1.000000
v 1.750000 -2.500000 1.000000
v 1.750000 -2.500000 0.000000
v 1.950000 -3.000000 0.000000
v 1.950000 -3.000000 1.000000
v 2.000000 -3.000000 1.000000
v 2.000000 -3.000000 -0.000000
v 2.000000 -3.500000 -0.000000
v 2.000000 -3.500000 1.000000
v 1.750000 -3.500000 1.000000
v 1.750000 -3.500000 0.000000
v 1.950000 -4.000000 0.000000
v 1.950000 -4.000000 1.000000
v 2.000000 -4.000000 1.000000
v 2.000000 -4.000000 -0.000000
v 2.000000 -4.500000 -0.000000
v 2.000000 -4.500000 1.000000
v 1.750000 -4.500000 1.000000
v 1.750000 -4.500000 0.000000
v 1.950000 -5.000000 0.000000
v 1.950000 -5.000000 1.000000
v 2.000000 -5.000000 1.000000
v 2.000000 -5.000000 -0.000000
v 2.000000 -5.500000 -0.000000
v 2.000000 -5.500000 1.000000
v 1.750000 -5.500000 1.000000
v 1.750000 -5.500000 0.000000
v 1.950000 -6.000000 0.000000
v 1.950000 -6.000000 1.000000
v 2.000000 -6.000000 1.000000
v 2.000000 -6.000000 -0.000000
v 2.000000 -6.500000 -0.000000
v 2.000000 -6.500000 1.000000
v 1.750000 -6.500000 1.000000
v 1.750000 -6.500000 0.000000
v 1.750000 -7.900000 0.000000
v 1.750000 -7.900000 1.000000
v 2.000000 -7.900000 1.000000
v 2.000000 -7.900000 -0.000000
vn -0.000011 0.000000 -1.000000
vn 0.000010 -0.000000 1.000000
vn 0.000003 -0.000001 1.000000
vn 0.928477 -0.371391 0.000000
vn -0.000001 0.000000 -1.000000
vn 0.928477 0.371391 0.000000
vn 0.000003 0.000001 1.000000
vn -0.000000 0.000000 -1.000000
vn 0.000002 0.000000 1.000000
usemtl Material
s off
f 61//7 64//7 63//7
f 61//7 63//7 62//7
f 57//2 61//2 62//2
f 57//2 62//2 58//2
f 58//12 62//12 63//12
f 58//12 63//12 59//12
f 59//1 63//1 64//1
f 59//1 64//1 60//1
f 61//13 57//13 60//13
f 61//13 60//13 64//13
f 59//1 60//1 65//1
f 59//1 65//1 66//1
f 60//14 57//14 68//14
f 60//14 68//14 65//14
f 57//15 58//15 67//15
f 57//15 67//15 68//15
f 58//16 59//16 66//16
f 58//16 66//16 67//16
f 67//16 66//16 71//16
f 67//16 71//16 70//16
f 68//17 67//17 70//17
f 68//17 70//17 69//17
f 65//18 68//18 69//18
f 65//18 69//18 72//18
f 66//1 65//1 72//1
f 66//1 72//1 71//1
f 71//1 72//1 73//1
f 71//1 73//1 74//1
f 72//14 69//14 76//14
f 72//14 76//14 73//14
f 69//15 70//15 75//15
f 69//15 75//15 76//15
f 70//16 71//16 74//16
f 70//16 74//16 75//16
f 75//16 74//16 79//16
f 75//16 79//16 78//16
f 76//17 75//17 78//17
f 76//17 78//17 77//17
f 73//18 76//18 77//18
f 73//18 77//18 80//18
f 74//1 73//1 80//1
f 74//1 80//1 79//1
f 79//1 80//1 81//1
f 79//1 81//1 82//1
f 80//14 77//14 84//14
f 80//14 84//14 81//14
f 77//15 78//15 83//15
f 77//15 83//15 84//15
f 78//16 79//16 82//16
f 78//16 82//16 83//16
f 83//16 82//16 87//16
f 83//16 87//16 86//16
f 84//17 83//17 86//17
f 84//17 86//17 85//17
f 81//18 84//18 85//18
f 81//18 85//18 88//18
f 82//1 81//1 88//1
f 82//1 88//1 87//1
f 87//1 88//1 89//1
f 87//1 89//1 90//1
f 88//14 85//14 92//14
f 88//14 92//14 89//14
f 85//15 86//15 91//15
f 85//15 91//15 92//15
f 86//16 87//16 90//16
f 86//16 90//16 91//16
f 91//16 90//16 95//16
f 91//16 95//16 94//16
f 92//17 91//17 94//17
f 92//17 94//17 93//17
f 89//18 92//18 93//18
f 89//18 93//18 96//18
f 90//1 89//1 96//1
f 90//1 96//1 95//1
f 95//1 96//1 97//1
f 95//1 97//1 98//1
f 96//14 93//14 100//14
f 96//14 100//14 97//14
f 93//15 94//15 99//15
f 93//15 99//15 100//15
f 94//16 95//16 98//16
f 94//16 98//16 99//16
f 99//16 98//16 103//16
f 99//16 103//16 102//16
f 100//17 99//17 102//17
f 100//17 102//17 101//17
f 97//18 100//18 101//18
f 97//18 101//18 104//18
f 98//1 97//1 104//1
f 98//1 104//1 103//1
f 103//1 104//1 105//1
f 103//1 105//1 106//1
f 104//14 101//14 108//14
f 104//14 108//14 105//14
f 101//15 102//15 107//15
f 101//15 107//15 108//15
f 102//16 103//16 106//16
f 102//16 106//16 107//16
f 107//19 106//19 111//19
f 107//19 111//19 110//19
f 108//2 107//2 110//2
f 108//2 110//2 109//2
f 105//20 108//20 109//20
f 105//20 109//20 112//20
f 106//1 105//1 112//1
f 106//1 112//1 111//1
o Cube.001
v -1.950000 -1.000000 0.000000
v -1.950000 -1.000000 1.000000
v -2.000000 -1.000000 1.000000
v -2.000000 -1.000000 -0.000000
v -1.950000 0.000000 0.000001
v -1.950000 0.000000 1.000001
v -2.000000 0.000000 1.000000
v -2.000000 0.000000 0.000000
v -2.000000 -1.500000 -0.000000
v -2.000000 -1.500000 1.000000
v -1.750000 -1.500000 1.000000
v -1.750000 -1.500000 0.000000
v -1.950000 -2.000000 0.000000
v -1.950000 -2.000000 1.000000
v -2.000000 -2.000000 1.000000
v -2.000000 -2.000000 -0.000000
v -2.000000 -2.500000 -0.000000
v -2.000000 -2.500000 1.000000
v -1.750000 -2.500000 1.000000
v -1.750000 -2.500000 0.000000
v -1.950000 -3.000000 0.000000
v -1.950000 -3.000000 1.000000
v -2.000000 -3.000000 1.000000
v -2.000000 -3.000000 -0.000000
v -2.000000 -3.500000 -0.000000
v -2.000000 -3.500000 1.000000
v -1.750000 -3.500000 1.000000
v -1.750000 -3.500000 0.000000
v -1.950000 -4.000000 0.000000
v -1.950000 -4.000000 1.000000
v -2.000000 -4.000000 1.000000
v -2.000000 -4.000000 -0.000000
v -2.000000 -4.500000 -0.000000
v -2.000000 -4.500000 1.000000
v -1.750000 -4.500000 1.000000
v -1.750000 -4.500000 0.000000
v -1.950000 -5.000000 0.000000
v -1.950000 -5.000000 1.000000
v -2.000000 -5.000000 1.000000
v -2.000000 -5.000000 -0.000000
v -2.000000 -5.500000 -0.000000
v -2.000000 -5.500000 1.000000
v -1.750000 -5.500000 1.000000
v -1.750000 -5.500000 0.000000
v -1.950000 -6.000000 0.000000
v -1.950000 -6.000000 1.000000
v -2.000000 -6.000000 1.000000
v -2.000000 -6.000000 -0.000000
v -2.000000 -6.500000 -0.000000
v -2.000000 -6.500000 1.000000
v -1.750000 -6.500000 1.000000
v -1.750000 -6.500000 0.000000
v -1.750000 -7.900001 0.000000
v -1.750000 -7.900001 1.000000
v -2.000000 -7.900001 1.000000
v -2.000000 -7.900001 -0.000000
vn -0.000011 -0.000000 1.000000
vn 0.000010 0.000000 -1.000000
vn 0.000003 0.000001 -1.000000
vn 0.000003 -0.000001 -1.000000
vn -0.000000 0.000000 1.000000
usemtl 
s off
f 117//5 120//5 119//5
f 117//5 119//5 118//5
f 113//2 117//2 118//2
f 113//2 118//2 114//2
f 114//21 118//21 119//21
f 114//21 119//21 115//21
f 115//1 119//1 120//1
f 115//1 120//1 116//1
f 117//22 113//22 116//22
f 117//22 116//22 120//22
f 115//1 116//1 121//1
f 115//1 121//1 122//1
f 116//23 113//23 124//23
f 116//23 124//23 121//23
f 113//17 114//17 123//17
f 113//17 123//17 124//17
f 114//4 115//4 122//4
f 114//4 122//4 123//4
f 123//4 122//4 127//4
f 123//4 127//4 126//4
f 124//15 123//15 126//15
f 124//15 126//15 125//15
f 121//24 124//24 125//24
f 121//24 125//24 128//24
f 122//1 121//1 128//1
f 122//1 128//1 127//1
f 127//1 128//1 129//1
f 127//1 129//1 130//1
f 128//23 125//23 132//23
f 128//23 132//23 129//23
f 125//17 126//17 131//17
f 125//17 131//17 132//17
f 126//4 127//4 130//4
f 126//4 130//4 131//4
f 131//4 130//4 135//4
f 131//4 135//4 134//4
f 132//15 131//15 134//15
f 132//15 134//15 133//15
f 129//24 132//24 133//24
f 129//24 133//24 136//24
f 130//1 129//1 136//1
f 130//1 136//1 135//1
f 135//1 136//1 137//1
f 135//1 137//1 138//1
f 136//23 133//23 140//23
f 136//23 140//23 137//23
f 133//17 134//17 139//17
f 133//17 139//17 140//17
f 134//4 135//4 138//4
f 134//4 138//4 139//4
f 139//4 138//4 143//4
f 139//4 143//4 142//4
f 140//15 139//15 142//15
f 140//15 142//15 141//15
f 137//24 140//24 141//24
f 137//24 141//24 144//24
f 138//1 137//1 144//1
f 138//1 144//1 143//1
f 143//1 144//1 145//1
f 143//1 145//1 146//1
f 144//23 141//23 148//23
f 144//23 148//23 145//23
f 141//17 142//17 147//17
f 141//17 147//17 148//17
f 142//4 143//4 146//4
f 142//4 146//4 147//4
f 147//4 146//4 151//4
f 147//4 151//4 150//4
f 148//15 147//15 150//15
f 148//15 150//15 149//15
f 145//24 148//24 149//24
f 145//24 149//24 152//24
f 146//1 145//1 152//1
f 146//1 152//1 151//1
f 151//1 152//1 153//1
f 151//1 153//1 154//1
f 152//23 149//23 156//23
f 152//23 156//23 153//23
f 149//17 150//17 155//17
f 149//17 155//17 156//17
f 150//4 151//4 154//4
f 150//4 154//4 155//4
f 155//4 154//4 159//4
f 155//4 159//4 158//4
f 156//15 155//15 158//15
f 156//15 158//15 157//15
f 153//24 156//24 157//24
f 153//24 157//24 160//24
f 154//1 153//1 160//1
f 154//1 160//1 159//1
f 159//1 160//1 161//1
f 159//1 161//1 162//1
f 160//23 157//23 164//23
f 160//23 164//23 161//23
f 157//17 158//17 163//17
f 157//17 163//17 164//17
f 158//4 159//4 162//4
f 158//4 162//4 163//4
f 163//25 162//25 167//25
f 163//25 167//25 166//25
f 164//2 163//2 166//2
f 164//2 166//2 165//2
f 161//6 164//6 165//6
f 161//6 165//6 168//6
f 162//1 161//1 168//1
f 162//1 168//1 167//1
o Cube
v 2.000000 -8.000000 -0.100000
v 2.000000 -8.000000 0.000000
v -2.000000 -8.000000 -0.000000
v -1.999999 -8.000000 -0.100000
v 2.000001 0.000000 -0.100000
v 1.999999 0.000000 0.000000
v -2.000001 0.000000 -0.000000
v -2.000000 0.000000 -0.100000
vn 1.000000 0.000000 0.000011
vn -1.000000 -0.000000 -0.000009
usemtl (null)
s off
f 169//7 170//7 171//7
f 169//7 171//7 172//7
f 173//5 176//5 175//5
f 173//5 175//5 174//5
f 169//26 173//26 174//26
f 169//26 174//26 170//26
f 170//25 174//25 175//25
f 170//25 175//25 171//25
f 171//27 175//27 176//27
f 171//27 176//27 172//27
f 173//19 169//19 172//19
f 173//19 172//19 176//19
