# Blender v2.60 (sub 0) OBJ File: 'board.blend'
# www.blender.org
mtllib board.mtl
o Cube.002_Cube.008
v -1.950000 -1.000000 0.000000
v -1.950000 -1.000000 1.000000
v -2.000000 -1.000000 1.000000
v -2.000000 -1.000000 -0.000000
v -1.950000 0.000000 0.000001
v -1.950001 0.000000 1.000001
v -2.000000 0.000000 1.000000
v -2.000000 0.000000 0.000000
v -2.000000 -1.500000 -0.000000
v -2.000000 -1.500000 1.000000
v -1.760000 -1.500000 1.000000
v -1.760000 -1.500000 0.000000
v -1.950000 -2.000000 0.000000
v -1.950000 -2.000000 1.000000
v -2.000000 -2.000000 1.000000
v -2.000000 -2.000000 -0.000000
v -2.000000 -2.500000 -0.000000
v -2.000000 -2.500000 1.000000
v -1.760000 -2.500000 1.000000
v -1.760000 -2.500000 0.000000
v -1.950000 -3.000000 0.000000
v -1.950000 -3.000000 1.000000
v -2.000000 -3.000000 1.000000
v -2.000000 -3.000000 -0.000000
v -2.000000 -3.500000 -0.000000
v -2.000000 -3.500000 1.000000
v -1.760000 -3.500000 1.000000
v -1.760000 -3.500000 0.000000
v -1.950000 -4.000000 0.000000
v -1.950000 -4.000000 1.000000
v -2.000000 -4.000000 1.000000
v -2.000000 -4.000000 -0.000000
v -2.000000 -4.500000 -0.000000
v -2.000000 -4.500000 1.000000
v -1.760000 -4.500000 1.000000
v -1.760000 -4.500000 0.000000
v -1.950000 -5.000000 0.000000
v -1.950000 -5.000000 1.000000
v -2.000000 -5.000000 1.000000
v -2.000000 -5.000000 -0.000000
v -2.000000 -5.500000 -0.000000
v -2.000000 -5.500000 1.000000
v -1.760000 -5.500000 1.000000
v -1.760000 -5.500000 0.000000
v -1.950000 -6.000000 0.000000
v -1.950000 -6.000000 1.000000
v -2.000000 -6.000000 1.000000
v -2.000000 -6.000000 -0.000000
v -2.000000 -6.500000 -0.000000
v -2.000000 -6.500000 1.000000
v -1.760000 -6.500000 1.000000
v -1.760000 -6.500000 0.000000
v -1.760000 -7.900000 0.000000
v -1.760000 -7.900000 1.000000
v -2.000000 -7.900000 1.000000
v -2.000000 -7.900000 -0.000000
v 2.000000 -1.000000 0.000000
v 2.000000 -1.000000 1.000000
v 1.950000 -1.000000 1.000000
v 1.950000 -1.000000 -0.000000
v 2.000000 0.000000 0.000000
v 2.000000 0.000000 1.000001
v 1.950000 0.000000 1.000000
v 1.950000 0.000000 0.000000
v 1.760000 -1.500000 -0.000000
v 1.760000 -1.500000 1.000000
v 2.000000 -1.500000 1.000000
v 2.000000 -1.500000 0.000000
v 2.000000 -2.000000 0.000000
v 2.000000 -2.000000 1.000000
v 1.950000 -2.000000 1.000000
v 1.950000 -2.000000 -0.000000
v 1.760000 -2.500000 -0.000000
v 1.760000 -2.500000 1.000000
v 2.000000 -2.500000 1.000000
v 2.000000 -2.500000 0.000000
v 2.000000 -3.000000 0.000000
v 2.000000 -3.000000 1.000000
v 1.950000 -3.000000 1.000000
v 1.950000 -3.000000 -0.000000
v 1.760000 -3.500000 -0.000000
v 1.760000 -3.500000 1.000000
v 2.000000 -3.500000 1.000000
v 2.000000 -3.500000 0.000000
v 2.000000 -4.000000 0.000000
v 2.000000 -4.000000 1.000000
v 1.950000 -4.000000 1.000000
v 1.950000 -4.000000 -0.000000
v 1.760000 -4.500000 -0.000000
v 1.760000 -4.500000 1.000000
v 2.000000 -4.500000 1.000000
v 2.000000 -4.500000 0.000000
v 2.000000 -5.000000 0.000000
v 2.000000 -5.000000 1.000000
v 1.950000 -5.000000 1.000000
v 1.950000 -5.000000 -0.000000
v 1.760000 -5.500000 -0.000000
v 1.760000 -5.500000 1.000000
v 2.000000 -5.500000 1.000000
v 2.000000 -5.500000 0.000000
v 2.000000 -6.000000 0.000000
v 2.000000 -6.000000 1.000000
v 1.950000 -6.000000 1.000000
v 1.950000 -6.000000 -0.000000
v 1.760000 -6.500000 -0.000000
v 1.760000 -6.500000 1.000000
v 2.000000 -6.500000 1.000000
v 2.000000 -6.500000 0.000000
v 2.000000 -7.900000 0.000000
v 2.000000 -7.900000 1.000000
v 1.760000 -7.900000 1.000000
v 1.760000 -7.900000 -0.000000
v 1.200000 -7.900000 0.000000
v 1.200000 -7.900000 1.000000
v 1.200000 -6.900000 1.000000
v 1.200000 -6.900000 -0.000000
v 1.300000 -7.900000 0.000000
v 1.300000 -7.899999 1.000000
v 1.300000 -6.900000 1.000000
v 1.300000 -6.900000 0.000000
v 0.700000 -7.900000 0.000000
v 0.700000 -7.900000 1.000000
v 0.700000 -6.900000 1.000000
v 0.700000 -6.900000 -0.000000
v 0.800000 -7.900000 0.000000
v 0.800000 -7.899999 1.000000
v 0.800000 -6.900000 1.000000
v 0.800000 -6.900000 0.000000
v 0.200000 -7.900000 0.000000
v 0.200000 -7.900000 1.000000
v 0.200000 -6.900000 1.000000
v 0.200000 -6.900000 -0.000000
v 0.300000 -7.900000 0.000000
v 0.300000 -7.899999 1.000000
v 0.300000 -6.900000 1.000000
v 0.300000 -6.900000 0.000000
v -1.300000 -7.900000 0.000000
v -1.300000 -7.900000 1.000000
v -1.300000 -6.900000 1.000000
v -1.300000 -6.900000 -0.000000
v -1.200000 -7.900000 0.000000
v -1.200000 -7.899999 1.000000
v -1.200000 -6.900000 1.000000
v -1.200000 -6.900000 0.000000
v -0.800000 -7.900000 0.000000
v -0.800000 -7.900000 1.000000
v -0.800000 -6.900000 1.000000
v -0.800000 -6.900000 -0.000000
v -0.700000 -7.900000 0.000000
v -0.700000 -7.899999 1.000000
v -0.700000 -6.900000 1.000000
v -0.700000 -6.900000 0.000000
v -0.300000 -7.900000 0.000000
v -0.300000 -7.900000 1.000000
v -0.300000 -6.900000 1.000000
v -0.300000 -6.900000 -0.000000
v -0.200000 -7.900000 0.000000
v -0.200000 -7.899999 1.000000
v -0.200000 -6.900000 1.000000
v -0.200000 -6.900000 0.000000
v 2.000000 -8.000000 0.000000
v 2.000000 -8.000000 1.000000
v -2.000000 -8.000000 1.000000
v -1.999999 -8.000000 -0.000000
v 2.000001 -7.900000 0.000000
v 1.999999 -7.900000 1.000000
v -2.000001 -7.900000 1.000000
v -2.000000 -7.900000 0.000000
v 2.000000 -8.000000 -0.100000
v 2.000000 -8.000000 0.000000
v -2.000000 -8.000000 -0.000000
v -1.999999 -8.000000 -0.100000
v 2.000001 0.000000 -0.100000
v 1.999999 0.000000 0.000000
v -2.000001 0.000000 -0.000000
v -2.000000 0.000000 -0.100000
vn 0.000000 1.000000 0.000000
vn 1.000000 -0.000000 0.000001
vn -0.000011 -0.000000 1.000000
vn -1.000000 -0.000000 -0.000000
vn 0.000010 0.000000 -1.000000
vn 0.000003 0.000001 -1.000000
vn 0.934784 0.355218 0.000000
vn -0.000001 -0.000000 1.000000
vn 0.934784 -0.355218 0.000000
vn 0.000003 -0.000001 -1.000000
vn -0.000000 0.000000 1.000000
vn 1.000000 -0.000000 0.000000
vn 0.000002 0.000000 -1.000000
vn 0.000000 -1.000000 0.000000
vn 0.000008 0.000000 -1.000000
vn -0.934784 0.355218 0.000000
vn -0.934784 -0.355218 0.000000
vn 0.000001 0.000000 -1.000000
vn 0.000002 -1.000000 0.000000
vn 1.000000 0.000001 0.000001
vn -0.000000 -0.000001 1.000000
vn -1.000000 -0.000005 -0.000001
vn 0.000000 0.000002 -1.000000
vn 1.000000 0.000000 0.000011
vn -1.000000 -0.000000 -0.000009
vn 0.000000 0.000000 -1.000000
usemtl Material
s off
f 5//1 8//1 7//1
f 5//1 7//1 6//1
f 1//2 5//2 6//2
f 1//2 6//2 2//2
f 2//3 6//3 7//3
f 2//3 7//3 3//3
f 3//4 7//4 8//4
f 3//4 8//4 4//4
f 5//5 1//5 4//5
f 5//5 4//5 8//5
f 3//4 4//4 9//4
f 3//4 9//4 10//4
f 4//6 1//6 12//6
f 4//6 12//6 9//6
f 1//7 2//7 11//7
f 1//7 11//7 12//7
f 2//8 3//8 10//8
f 2//8 10//8 11//8
f 11//8 10//8 15//8
f 11//8 15//8 14//8
f 12//9 11//9 14//9
f 12//9 14//9 13//9
f 9//10 12//10 13//10
f 9//10 13//10 16//10
f 10//4 9//4 16//4
f 10//4 16//4 15//4
f 15//4 16//4 17//4
f 15//4 17//4 18//4
f 16//6 13//6 20//6
f 16//6 20//6 17//6
f 13//7 14//7 19//7
f 13//7 19//7 20//7
f 14//8 15//8 18//8
f 14//8 18//8 19//8
f 19//8 18//8 23//8
f 19//8 23//8 22//8
f 20//9 19//9 22//9
f 20//9 22//9 21//9
f 17//10 20//10 21//10
f 17//10 21//10 24//10
f 18//4 17//4 24//4
f 18//4 24//4 23//4
f 23//4 24//4 25//4
f 23//4 25//4 26//4
f 24//6 21//6 28//6
f 24//6 28//6 25//6
f 21//7 22//7 27//7
f 21//7 27//7 28//7
f 22//8 23//8 26//8
f 22//8 26//8 27//8
f 27//8 26//8 31//8
f 27//8 31//8 30//8
f 28//9 27//9 30//9
f 28//9 30//9 29//9
f 25//10 28//10 29//10
f 25//10 29//10 32//10
f 26//4 25//4 32//4
f 26//4 32//4 31//4
f 31//4 32//4 33//4
f 31//4 33//4 34//4
f 32//6 29//6 36//6
f 32//6 36//6 33//6
f 29//7 30//7 35//7
f 29//7 35//7 36//7
f 30//8 31//8 34//8
f 30//8 34//8 35//8
f 35//8 34//8 39//8
f 35//8 39//8 38//8
f 36//9 35//9 38//9
f 36//9 38//9 37//9
f 33//10 36//10 37//10
f 33//10 37//10 40//10
f 34//4 33//4 40//4
f 34//4 40//4 39//4
f 39//4 40//4 41//4
f 39//4 41//4 42//4
f 40//6 37//6 44//6
f 40//6 44//6 41//6
f 37//7 38//7 43//7
f 37//7 43//7 44//7
f 38//8 39//8 42//8
f 38//8 42//8 43//8
f 43//8 42//8 47//8
f 43//8 47//8 46//8
f 44//9 43//9 46//9
f 44//9 46//9 45//9
f 41//10 44//10 45//10
f 41//10 45//10 48//10
f 42//4 41//4 48//4
f 42//4 48//4 47//4
f 47//4 48//4 49//4
f 47//4 49//4 50//4
f 48//6 45//6 52//6
f 48//6 52//6 49//6
f 45//7 46//7 51//7
f 45//7 51//7 52//7
f 46//8 47//8 50//8
f 46//8 50//8 51//8
f 51//11 50//11 55//11
f 51//11 55//11 54//11
f 52//12 51//12 54//12
f 52//12 54//12 53//12
f 49//13 52//13 53//13
f 49//13 53//13 56//13
f 50//4 49//4 56//4
f 50//4 56//4 55//4
f 53//14 54//14 55//14
f 53//14 55//14 56//14
f 61//1 64//1 63//1
f 61//1 63//1 62//1
f 57//12 61//12 62//12
f 57//12 62//12 58//12
f 58//3 62//3 63//3
f 58//3 63//3 59//3
f 59//4 63//4 64//4
f 59//4 64//4 60//4
f 61//15 57//15 60//15
f 61//15 60//15 64//15
f 59//16 60//16 65//16
f 59//16 65//16 66//16
f 60//13 57//13 68//13
f 60//13 68//13 65//13
f 57//12 58//12 67//12
f 57//12 67//12 68//12
f 58//8 59//8 66//8
f 58//8 66//8 67//8
f 67//8 66//8 71//8
f 67//8 71//8 70//8
f 68//12 67//12 70//12
f 68//12 70//12 69//12
f 65//13 68//13 69//13
f 65//13 69//13 72//13
f 66//17 65//17 72//17
f 66//17 72//17 71//17
f 71//16 72//16 73//16
f 71//16 73//16 74//16
f 72//13 69//13 76//13
f 72//13 76//13 73//13
f 69//12 70//12 75//12
f 69//12 75//12 76//12
f 70//8 71//8 74//8
f 70//8 74//8 75//8
f 75//8 74//8 79//8
f 75//8 79//8 78//8
f 76//12 75//12 78//12
f 76//12 78//12 77//12
f 73//13 76//13 77//13
f 73//13 77//13 80//13
f 74//17 73//17 80//17
f 74//17 80//17 79//17
f 79//16 80//16 81//16
f 79//16 81//16 82//16
f 80//13 77//13 84//13
f 80//13 84//13 81//13
f 77//12 78//12 83//12
f 77//12 83//12 84//12
f 78//8 79//8 82//8
f 78//8 82//8 83//8
f 83//8 82//8 87//8
f 83//8 87//8 86//8
f 84//12 83//12 86//12
f 84//12 86//12 85//12
f 81//13 84//13 85//13
f 81//13 85//13 88//13
f 82//17 81//17 88//17
f 82//17 88//17 87//17
f 87//16 88//16 89//16
f 87//16 89//16 90//16
f 88//13 85//13 92//13
f 88//13 92//13 89//13
f 85//12 86//12 91//12
f 85//12 91//12 92//12
f 86//8 87//8 90//8
f 86//8 90//8 91//8
f 91//8 90//8 95//8
f 91//8 95//8 94//8
f 92//12 91//12 94//12
f 92//12 94//12 93//12
f 89//13 92//13 93//13
f 89//13 93//13 96//13
f 90//17 89//17 96//17
f 90//17 96//17 95//17
f 95//16 96//16 97//16
f 95//16 97//16 98//16
f 96//13 93//13 100//13
f 96//13 100//13 97//13
f 93//12 94//12 99//12
f 93//12 99//12 100//12
f 94//8 95//8 98//8
f 94//8 98//8 99//8
f 99//8 98//8 103//8
f 99//8 103//8 102//8
f 100//12 99//12 102//12
f 100//12 102//12 101//12
f 97//13 100//13 101//13
f 97//13 101//13 104//13
f 98//17 97//17 104//17
f 98//17 104//17 103//17
f 103//16 104//16 105//16
f 103//16 105//16 106//16
f 104//13 101//13 108//13
f 104//13 108//13 105//13
f 101//12 102//12 107//12
f 101//12 107//12 108//12
f 102//8 103//8 106//8
f 102//8 106//8 107//8
f 107//11 106//11 111//11
f 107//11 111//11 110//11
f 108//12 107//12 110//12
f 108//12 110//12 109//12
f 105//18 108//18 109//18
f 105//18 109//18 112//18
f 106//4 105//4 112//4
f 106//4 112//4 111//4
f 111//14 112//14 109//14
f 111//14 109//14 110//14
f 113//4 114//4 115//4
f 113//4 115//4 116//4
f 117//12 120//12 119//12
f 117//12 119//12 118//12
f 113//19 117//19 118//19
f 113//19 118//19 114//19
f 114//8 118//8 119//8
f 114//8 119//8 115//8
f 115//1 119//1 120//1
f 115//1 120//1 116//1
f 117//13 113//13 116//13
f 117//13 116//13 120//13
f 121//4 122//4 123//4
f 121//4 123//4 124//4
f 125//12 128//12 127//12
f 125//12 127//12 126//12
f 121//19 125//19 126//19
f 121//19 126//19 122//19
f 122//8 126//8 127//8
f 122//8 127//8 123//8
f 123//1 127//1 128//1
f 123//1 128//1 124//1
f 125//13 121//13 124//13
f 125//13 124//13 128//13
f 129//4 130//4 131//4
f 129//4 131//4 132//4
f 133//12 136//12 135//12
f 133//12 135//12 134//12
f 129//19 133//19 134//19
f 129//19 134//19 130//19
f 130//8 134//8 135//8
f 130//8 135//8 131//8
f 131//1 135//1 136//1
f 131//1 136//1 132//1
f 133//13 129//13 132//13
f 133//13 132//13 136//13
f 137//4 138//4 139//4
f 137//4 139//4 140//4
f 141//12 144//12 143//12
f 141//12 143//12 142//12
f 137//19 141//19 142//19
f 137//19 142//19 138//19
f 138//8 142//8 143//8
f 138//8 143//8 139//8
f 139//1 143//1 144//1
f 139//1 144//1 140//1
f 141//13 137//13 140//13
f 141//13 140//13 144//13
f 145//4 146//4 147//4
f 145//4 147//4 148//4
f 149//12 152//12 151//12
f 149//12 151//12 150//12
f 145//19 149//19 150//19
f 145//19 150//19 146//19
f 146//8 150//8 151//8
f 146//8 151//8 147//8
f 147//1 151//1 152//1
f 147//1 152//1 148//1
f 149//13 145//13 148//13
f 149//13 148//13 152//13
f 153//4 154//4 155//4
f 153//4 155//4 156//4
f 157//12 160//12 159//12
f 157//12 159//12 158//12
f 153//19 157//19 158//19
f 153//19 158//19 154//19
f 154//8 158//8 159//8
f 154//8 159//8 155//8
f 155//1 159//1 160//1
f 155//1 160//1 156//1
f 157//13 153//13 156//13
f 157//13 156//13 160//13
f 161//14 162//14 163//14
f 161//14 163//14 164//14
f 165//1 168//1 167//1
f 165//1 167//1 166//1
f 161//20 165//20 166//20
f 161//20 166//20 162//20
f 162//21 166//21 167//21
f 162//21 167//21 163//21
f 163//22 167//22 168//22
f 163//22 168//22 164//22
f 165//23 161//23 164//23
f 165//23 164//23 168//23
f 169//14 170//14 171//14
f 169//14 171//14 172//14
f 173//1 176//1 175//1
f 173//1 175//1 174//1
f 169//24 173//24 174//24
f 169//24 174//24 170//24
f 170//11 174//11 175//11
f 170//11 175//11 171//11
f 171//25 175//25 176//25
f 171//25 176//25 172//25
f 173//26 169//26 172//26
f 173//26 172//26 176//26
